<svg xmlns="http://www.w3.org/2000/svg" width="175" height="50" fill="none"><rect width="100%" height="100%" fill="white"/><path fill="#190F3F" d="M70.934 23.534c0-4.166-3.077-6.734-7.18-6.734-4.101 0-7.204 2.568-7.204 6.734s3.103 6.708 7.205 6.708 7.179-2.542 7.179-6.708zm-4.234-.078c0 1.912-1.105 3.354-2.945 3.354-1.867 0-2.945-1.442-2.945-3.354 0-1.913 1.078-3.354 2.945-3.354 1.84 0 2.945 1.44 2.945 3.354zm18.715 6.498V17.036h-4.207V23.9c0 1.703-.684 2.882-2.183 2.882-1.499 0-1.92-1.022-1.92-2.515v-7.232h-4.207v7.808c0 3.223 1.078 5.398 4.654 5.398 1.867 0 3.235-.97 3.787-1.756l.026 1.468h4.05zm10.521-9.721v-3.171H93.07v-3.511h-4.234v3.511h-1.84v3.17h1.84v5.005c0 2.961.71 5.005 4.076 5.005 1.525 0 2.682-.34 2.998-.42l-.21-3.275s-.605.236-1.263.236c-1.288 0-1.367-.786-1.367-1.913v-4.637h2.866zm11.581 5.738c0-2.856-2.34-3.537-4.575-4.192-.895-.262-1.894-.577-1.894-1.258s.552-.944 1.552-.944c1.052 0 2.524.682 3.26 1.258l1.368-2.463c-.736-.603-2.262-1.598-4.97-1.598-2.709 0-4.917 1.546-4.917 4.061 0 2.673 1.893 3.433 4.049 3.983.473.157 2.367.576 2.367 1.415 0 .838-.737 1.1-1.788 1.1-1.052 0-2.788-.68-3.84-1.572l-1.577 2.49c1.472 1.388 3.523 1.991 5.469 1.991 2.682 0 5.496-1.18 5.496-4.271zm14.704-2.856c0-3.773-2.656-6.315-6.495-6.315s-6.995 2.437-6.995 6.708c0 4.271 2.919 6.734 6.916 6.734 4.024 0 5.733-1.782 6.154-2.096l-1.657-2.175c-.736.498-2.209 1.232-3.892 1.232-1.709 0-3.129-.839-3.313-2.7h9.23s.052-.76.052-1.388zm-3.918-.996h-5.338c.053-1.231.947-2.594 2.682-2.594 1.762 0 2.63 1.415 2.656 2.594zm13.585-1.886v-3.171h-2.866v-3.511h-4.234v3.511h-1.84v3.17h1.84v5.005c0 2.961.71 5.005 4.076 5.005 1.525 0 2.682-.34 2.998-.42l-.21-3.275s-.605.236-1.263.236c-1.288 0-1.367-.786-1.367-1.913v-4.637h2.866z"/><path fill="#6666E4" d="M138.946 27.989c0-1.415-1.025-2.254-2.472-2.254-1.472 0-2.498.839-2.498 2.254s1.026 2.253 2.498 2.253c1.447 0 2.472-.838 2.472-2.253zm14.836 1.965v-7.285c0-4.192-2.341-5.87-6.39-5.87-2.419 0-4.444.76-5.549 1.311l1.105 2.725c.657-.42 2.314-1.153 3.97-1.153 1.683 0 2.656.708 2.656 2.07v.289l-3.26.13c-2.393.105-5.049 1.075-5.049 3.957 0 2.883 2.419 4.114 4.707 4.114 2.103 0 3.155-1.1 3.708-1.65l.078 1.362h4.024zm-4.181-5.686v2.122c-.263.446-1.026 1.18-2.157 1.18-1.157 0-1.972-.603-1.972-1.599 0-.97.763-1.52 2.051-1.572l2.078-.131zm11.334-10.901c0-1.284-.973-2.175-2.393-2.175s-2.393.891-2.393 2.175c0 1.31.973 2.175 2.393 2.175s2.393-.864 2.393-2.175zm-.289 16.587V17.036h-4.208v12.918h4.208z"/><path fill="#6666E4" fill-rule="evenodd" d="M25.266 15.697a1.582 1.582 0 0 1 2.229-.099l4.76 4.337a1.57 1.57 0 0 1 0 2.32l-4.76 4.338a1.582 1.582 0 0 1-2.23-.1 1.568 1.568 0 0 1 .1-2.22l3.488-3.178-3.487-3.176a1.568 1.568 0 0 1-.1-2.222zm7.52 9.735c0-.868.707-1.572 1.579-1.572h4.76c.871 0 1.578.704 1.578 1.572 0 .869-.707 1.573-1.578 1.573h-4.76a1.575 1.575 0 0 1-1.578-1.573z" clip-rule="evenodd"/><path fill="#6666E4" fill-rule="evenodd" d="M33.357 31.758v6.325l-7.356-6.325h-3.742a2.1 2.1 0 0 1-2.104-2.097v-17.42a2.1 2.1 0 0 1 2.104-2.097h21.037a2.1 2.1 0 0 1 2.104 2.097v17.42a2.1 2.1 0 0 1-2.104 2.097h-9.939zm-8.53 3.144H22.26c-2.904 0-5.259-2.346-5.259-5.24V12.24C17 9.346 19.355 7 22.26 7h21.036c2.905 0 5.26 2.346 5.26 5.24v17.421c0 2.895-2.355 5.241-5.26 5.241h-6.783v5.47c0 1.794-2.115 2.759-3.478 1.587l-8.207-7.057z" clip-rule="evenodd"/></svg>
